<svg xmlns="http://www.w3.org/2000/svg" viewBox="0 0 201.2 117.82"><defs><style>.cls-1{fill:#fefefe;}.cls-2{fill:#fafafa;}</style></defs><title>bearart</title><g id="圖層_2" data-name="圖層 2"><g id="圖層_1-2" data-name="圖層 1"><path d="M70.25,117.81A77.88,77.88,0,0,1,24.33,101c-7.15-5.58-11-13.51-14.11-22.06a50.09,50.09,0,0,1-1.6-30.14c.82-3.35.35-7,2.3-10.09.89-1.41-.28-2-1.52-2.73C4.9,33.46.56,30.7.05,24.73a15,15,0,0,1,.22-4.08C2.16,10.65,14.17,2.23,24.16,4c1.73.3,3.75.57,4.78,1.94,2.25,3,4.56,2.14,7.33,1A87.72,87.72,0,0,1,71.64,0,44.23,44.23,0,0,1,92.52,5.06c2.54,1.39,4.42,1.14,7.15-.29a28.82,28.82,0,0,1,22.49-2c7.1,2.3,11.07,13.48,8,20.69-.84,1.94-1.6,4.19-3.09,5.51-3.1,2.76-2.16,5.31-.87,8.46,7.08,17.29,5.09,34.43-1.25,51.44A16.86,16.86,0,0,1,122,93.19C108.85,109.93,91.66,118.24,70.25,117.81Z"/><path class="cls-1" d="M74.6,94.46c-.17-2.63-.15-5.08,2.3-7,1.37-1.07,1.88-2.91,2.24-4.65s-.17-3.14-1.9-3.56c-3.77-.9-7.61-1.57-11.38.09-4,1.75-4.44,5.41-.87,7.93a13.3,13.3,0,0,1,6,10c.21,2-.34,2.91-2.53,3-8.74.35-17.79-7.81-14.11-17.83,2.32-6.32,4.83-12.64,10.26-17C68.63,62.13,76.7,63,80.1,67.09c5.43,6.55,8.4,14.09,8.1,22.72-.18,5.23-6.84,10.6-12.12,10-1.1-.13-1.54-.46-1.49-1.56S74.6,95.71,74.6,94.46Z"/><path class="cls-2" d="M96,70.5c-4.62.29-7.31-1.93-7.64-6C88,60,90.91,56,94.68,55.68c2.91-.25,4.92,1.52,5.39,5-2-1.33-3.93-1.57-5.43.58C92.69,64.05,93.14,67.56,96,70.5Z"/><path class="cls-2" d="M51.43,60.64C48.1,60.05,45.11,59,44,62.71s.27,5.91,4.51,7.42C44.64,72,41.35,71,39.2,67.39c-1.63-2.74-.2-6.9,3.22-9.38C45.16,56,47.85,56.68,51.43,60.64Z"/><path d="M147.35,104.21a31.62,31.62,0,0,1,.6-7.13c.17-.81,1.42-6.77,2.29-6.86.58,0,2.21,5.12,2.4,5.77.73,2.47,1.54,5.47.77,8-.95,3.07,3.86,4.38,4.79,1.32,1.2-3.91,0-8.66-1.35-12.4-1.08-3-2.57-7.41-6.23-7.92-3.5-.49-4.86,2.83-5.91,5.54a36.13,36.13,0,0,0-2.33,13.68c.05,3.2,5,3.21,5,0Z"/><path d="M147.39,100.61a57.1,57.1,0,0,1,6.13-.64c3.18-.17,3.2-5.14,0-5a69.16,69.16,0,0,0-7.46.82,2.51,2.51,0,0,0-1.73,3.06,2.54,2.54,0,0,0,3.06,1.74Z"/><path d="M160.6,87.8q.66,8.42.76,16.84c0,3.2,5,3.2,5,0q-.1-8.43-.76-16.84c-.25-3.17-5.23-3.19-5,0Z"/><path d="M166.54,90.39c-.55.57-.65.72-.27.48s.82-.27,1.24-.39a12.49,12.49,0,0,1,1.91-.41c.15,0,1.27-.15,1.36.07-.05-.12-.41.52-.54.66-1.8,2-4.3,2.72-6.83,3.43-3.08.87-1.77,5.67,1.32,4.8,2.89-.81,5.84-1.74,8.13-3.77,2-1.77,3.54-4.62,2.36-7.26s-4-3.14-6.56-2.8-6,1-6.92,3.87c-1,3.05,3.8,4.36,4.8,1.32Z"/><path d="M167.79,99.53a42.39,42.39,0,0,1,6,6.78,2.5,2.5,0,0,0,3.52,0,2.56,2.56,0,0,0,0-3.52,42.39,42.39,0,0,0-6-6.78,2.56,2.56,0,0,0-3.52,0,2.51,2.51,0,0,0,0,3.52Z"/><path d="M169.6,77.72a33,33,0,0,1,.62-7.36c.18-.83,1.47-7,2.36-7.07.6-.06,2.28,5.28,2.48,5.95.74,2.55,1.59,5.64.79,8.25-1,3.16,4,4.52,5,1.36,1.23-4,0-8.93-1.4-12.79-1.12-3.08-2.65-7.65-6.43-8.17-3.6-.5-5,2.93-6.09,5.72a37.15,37.15,0,0,0-2.41,14.11c.05,3.3,5.18,3.31,5.13,0Z"/><path d="M169.64,74a58.09,58.09,0,0,1,6.32-.66c3.29-.17,3.31-5.3,0-5.13a70.89,70.89,0,0,0-7.69.84,2.57,2.57,0,1,0,1.37,5Z"/><path d="M183.27,60.8q.69,8.67.78,17.36c0,3.3,5.17,3.31,5.14,0q-.1-8.7-.78-17.36c-.26-3.28-5.4-3.3-5.14,0Z"/><path d="M189.4,63.47c-.58.58-.67.74-.28.49s.85-.28,1.28-.4a11.15,11.15,0,0,1,2-.42c.15,0,1.31-.16,1.4.06-.05-.12-.43.54-.56.69-1.85,2.09-4.43,2.8-7.05,3.53-3.17.9-1.82,5.85,1.37,5,3-.84,6-1.79,8.38-3.88,2.06-1.82,3.65-4.77,2.43-7.49s-4.13-3.25-6.76-2.89-6.16,1-7.13,4c-1,3.15,3.91,4.49,5,1.37Z"/><path d="M190.69,72.89a43.7,43.7,0,0,1,6.15,7,2.59,2.59,0,0,0,3.63,0,2.63,2.63,0,0,0,0-3.63,43.7,43.7,0,0,0-6.15-7,2.64,2.64,0,0,0-3.63,0,2.58,2.58,0,0,0,0,3.63Z"/><path d="M179.59,91.22l10.33-.78c3.17-.24,3.2-5.22,0-5l-10.33.78c-3.17.24-3.2,5.22,0,5Z"/><path d="M182.2,90.83a95.2,95.2,0,0,1-.42,13.92c-.32,3.18,4.65,3.16,5,0a98.07,98.07,0,0,0,.42-13.92c-.13-3.19-5.11-3.21-5,0Z"/><path d="M196.15,103v-.29h-5v.47l4.88-.66-.43,1.79a2.51,2.51,0,0,0,0-3.52,2.55,2.55,0,0,0-3.52,0,3.16,3.16,0,0,0-.85,3,2.49,2.49,0,0,0,4.89-.66v-.47a2.49,2.49,0,1,0-5,0V103a2.49,2.49,0,1,0,5,0Z"/><path d="M135.77,60.72l-.41,17.47c-.07,3,4.53,3,4.6,0l.41-17.47c.07-3-4.53-3-4.6,0Z"/><path d="M140.15,63.16c.62-.15,2.1-.69,2.74-.38s.64,1.23.55,1.85c-.26,1.9-2.12,3-3.77,3.54-2.79,1-1.6,5.39,1.22,4.44,4-1.34,7.54-4.49,7.15-9a6.16,6.16,0,0,0-2.66-4.77c-1.9-1.13-4.45-.56-6.46-.1-2.88.66-1.66,5.09,1.23,4.44Z"/><path d="M140.9,72.92c1.13-.6,3.84-1.29,3.29.9a3.35,3.35,0,0,1-1.6,1.87,7.62,7.62,0,0,1-1.35.65l-.58.18c-.78.09-.77.25.05.48-2.16-2-5.42,1.23-3.25,3.25s5,.77,7.19-.43a7.91,7.91,0,0,0,4.12-5.54,5.85,5.85,0,0,0-2.54-5.82c-2.28-1.43-5.43-.7-7.65.49-2.61,1.4-.29,5.37,2.32,4Z"/><path d="M152.24,63.31c2.54.38,4.7-.48,7.18-.69,2.83-.23,2.85-4.66,0-4.43-1.91.16-4.08,1.13-6,.84a2.28,2.28,0,0,0-2.72,1.55,2.23,2.23,0,0,0,1.54,2.73Z"/><path d="M151.54,62.07c-.15,2.56-.27,5.12-.33,7.68-.06,2.36-.43,5.18,0,7.5.91,4.39,5.77,3.25,9.17,3.16,2.85-.08,2.86-4.51,0-4.43-.6,0-4.84.53-5.11.14a26.55,26.55,0,0,0,.28-3.81c0-3.42.17-6.83.37-10.24.17-2.85-4.26-2.84-4.43,0Z"/><path d="M154.9,71.76a16.07,16.07,0,0,0,5.64-.77c2.7-.9,1.54-5.18-1.17-4.28a12.14,12.14,0,0,1-4.47.62c-2.85-.13-2.85,4.3,0,4.43Z"/></g></g></svg>