<svg xmlns="http://www.w3.org/2000/svg" viewBox="0 0 131.19 117.82"><defs><style>.cls-1{fill:#fefefe;}.cls-2{fill:#fafafa;}</style></defs><title>bear</title><g id="圖層_2" data-name="圖層 2"><g id="圖層_1-2" data-name="圖層 1"><path d="M70.25,117.81A77.88,77.88,0,0,1,24.33,101c-7.15-5.58-11-13.51-14.11-22.06a50.09,50.09,0,0,1-1.6-30.14c.82-3.35.35-7,2.3-10.09.89-1.41-.28-2-1.52-2.73C4.9,33.46.56,30.7.05,24.73a15,15,0,0,1,.22-4.08C2.16,10.65,14.17,2.23,24.16,4c1.73.3,3.75.57,4.78,1.94,2.25,3,4.56,2.14,7.33,1A87.72,87.72,0,0,1,71.64,0,44.23,44.23,0,0,1,92.52,5.06c2.54,1.39,4.42,1.14,7.15-.29a28.82,28.82,0,0,1,22.49-2c7.1,2.3,11.07,13.48,8,20.69-.84,1.94-1.6,4.19-3.09,5.51-3.1,2.76-2.16,5.31-.87,8.46,7.08,17.29,5.09,34.43-1.25,51.44A16.86,16.86,0,0,1,122,93.19C108.85,109.93,91.66,118.24,70.25,117.81Z"/><path class="cls-1" d="M74.6,94.46c-.17-2.63-.15-5.08,2.3-7,1.37-1.07,1.88-2.91,2.24-4.65s-.17-3.14-1.9-3.56c-3.77-.9-7.61-1.57-11.38.09-4,1.75-4.44,5.41-.87,7.93a13.3,13.3,0,0,1,6,10c.21,2-.34,2.91-2.53,3-8.74.35-17.79-7.81-14.11-17.83,2.32-6.32,4.83-12.64,10.26-17C68.63,62.13,76.7,63,80.1,67.09c5.43,6.55,8.4,14.09,8.1,22.72-.18,5.23-6.84,10.6-12.12,10-1.1-.13-1.54-.46-1.49-1.56S74.6,95.71,74.6,94.46Z"/><path class="cls-2" d="M96,70.5c-4.62.29-7.31-1.93-7.64-6C88,60,90.91,56,94.68,55.68c2.91-.25,4.92,1.52,5.39,5-2-1.33-3.93-1.57-5.43.58C92.69,64.05,93.14,67.56,96,70.5Z"/><path class="cls-2" d="M51.43,60.64C48.1,60.05,45.11,59,44,62.71s.27,5.91,4.51,7.42C44.64,72,41.35,71,39.2,67.39c-1.63-2.74-.2-6.9,3.22-9.38C45.16,56,47.85,56.68,51.43,60.64Z"/></g></g></svg>